<svg width="110" height="110" viewBox="0 0 110 110" fill="none" xmlns="http://www.w3.org/2000/svg">
<path d="M34.2723 74.9587L33.5649 76.3994H35.1699H99.1391C99.8797 76.3998 100.59 76.6931 101.115 77.2153C101.64 77.7367 101.937 78.444 101.942 79.1833C101.941 80.7227 100.683 81.9727 99.1504 81.9727H86.9795H84.9863L86.1779 83.5705C87.47 85.3031 88.1924 87.4254 88.1924 89.6006C88.1924 95.1284 83.6987 99.6221 78.1709 99.6221C72.6431 99.6221 68.1494 95.1284 68.1494 89.6006V89.5997C68.1475 87.4259 68.8537 85.3107 70.1612 83.5741L71.3669 81.9727H69.3623H52.0566H50.0634L51.255 83.5705C52.5472 85.3031 53.2695 87.4254 53.2695 89.6006C53.2695 95.1284 48.7758 99.6221 43.248 99.6221C37.7203 99.6221 33.2266 95.1284 33.2266 89.6006V89.5997C33.2246 87.4259 33.9309 85.3107 35.2383 83.5741L36.4441 81.9727H34.4395H27.6934C26.6329 81.9727 25.6777 81.3809 25.2025 80.4384L25.1989 80.4314C24.9637 79.974 24.8612 79.4599 24.903 78.9473C24.9448 78.4348 25.1292 77.9441 25.4353 77.5309L25.4615 77.4955L25.4845 77.4579L33.5197 64.3417L33.7263 64.0044L33.6463 63.6171L27.4051 33.3993L27.4044 33.3957L24.8692 21.343L24.7022 20.5488H23.8906H10.3662C9.62573 20.5488 8.91557 20.2547 8.39197 19.7311C7.86837 19.2075 7.57422 18.4973 7.57422 17.7568C7.57422 17.0164 7.86837 16.3062 8.39197 15.7826C8.91557 15.259 9.62573 14.9648 10.3662 14.9648H26.9629C28.2761 14.9648 29.4336 15.9039 29.701 17.1781L29.7015 17.1806L30.2816 19.9091L30.4494 20.6985L31.2564 20.7012L99.1445 20.9267C99.1449 20.9267 99.1452 20.9267 99.1456 20.9267C99.5454 20.9293 99.9398 21.0186 100.302 21.1886C100.663 21.3586 100.984 21.6052 101.241 21.9113C101.757 22.53 101.971 23.3471 101.829 24.1449L94.4388 65.5106C94.2026 66.8178 93.0701 67.7607 91.749 67.7607H91.7472L38.38 67.8574L37.7582 67.8586L37.4842 68.4167L34.2723 74.9587ZM32.8422 26.1777L31.6054 26.1737L31.8603 27.3839L39.0684 61.5978L39.2359 62.393L40.0486 62.3916L88.6356 62.3057L89.4713 62.3042L89.6182 61.4815L95.6768 27.5576L95.8861 26.3858L94.6957 26.3818L32.8422 26.1777ZM38.8535 89.6006C38.8535 92.022 40.8266 93.9951 43.248 93.9951C44.4135 93.9951 45.5313 93.5321 46.3554 92.708C47.1796 91.8839 47.6426 90.7661 47.6426 89.6006C47.6426 87.1792 45.6695 85.2061 43.248 85.2061C40.8266 85.2061 38.8535 87.1792 38.8535 89.6006ZM73.7764 89.6006C73.7764 92.022 75.7495 93.9951 78.1709 93.9951C79.3364 93.9951 80.4542 93.5321 81.2783 92.708C82.1024 91.8839 82.5654 90.7661 82.5654 89.6006C82.5654 87.1792 80.5923 85.2061 78.1709 85.2061C75.7495 85.2061 73.7764 87.1792 73.7764 89.6006Z" fill="#BDF8A3" stroke="black" stroke-width="2"/>
<path d="M66.8768 32.5991C65.7085 30.7344 62.5877 30.7344 61.4215 32.5991L57.5948 38.6966C57.5342 38.804 57.4489 38.8998 57.3439 38.9782C57.239 39.0566 57.1165 39.116 56.9841 39.1529C56.8516 39.1897 56.7118 39.2032 56.573 39.1925C56.4343 39.1818 56.2996 39.1472 56.1769 39.0907C56.0542 39.0342 55.9461 38.9571 55.8592 38.8639C55.7722 38.7707 55.7082 38.6634 55.671 38.5485C55.6338 38.4336 55.6241 38.3134 55.6426 38.1952C55.661 38.077 55.7072 37.9632 55.7784 37.8607L59.6031 31.7595C61.5495 28.656 66.7488 28.656 68.6952 31.7595L72.8398 38.3732L73.4487 35.2449C73.5007 35.0195 73.6532 34.8203 73.8738 34.6895C74.0944 34.5587 74.3658 34.5067 74.6305 34.5443C74.8952 34.582 75.1323 34.7065 75.2916 34.8914C75.4509 35.0763 75.5199 35.3071 75.4839 35.5347L74.4518 40.837C74.4273 40.9629 74.3711 41.0827 74.2873 41.1882C74.2035 41.2938 74.094 41.3825 73.9663 41.4484C73.8386 41.5142 73.6958 41.5556 73.5477 41.5696C73.3995 41.5837 73.2496 41.5701 73.1081 41.5298L66.916 39.7624C66.6662 39.6819 66.4624 39.5217 66.3476 39.3154C66.2328 39.109 66.2158 38.8726 66.3002 38.6558C66.3846 38.439 66.5639 38.2586 66.8003 38.1525C67.0368 38.0464 67.312 38.0229 67.5682 38.0869L70.9161 39.0413L66.8768 32.5955V32.5991ZM75.1804 43.9229C75.0569 43.9757 74.947 44.0493 74.8572 44.1392C74.7674 44.2291 74.6997 44.3335 74.6579 44.4462C74.6161 44.559 74.6012 44.6777 74.614 44.7955C74.6269 44.9133 74.6672 45.0276 74.7325 45.1318L78.9226 51.8126C79.1761 52.2166 79.3029 52.67 79.2905 53.1285C79.2782 53.587 79.1272 54.0349 78.8523 54.4285C78.5773 54.822 78.1878 55.1478 77.7219 55.3739C77.256 55.6001 76.7295 55.7188 76.1939 55.7186H67.6694L70.0368 53.6914C70.2306 53.5257 70.3396 53.3009 70.3398 53.0664C70.34 52.8319 70.2314 52.6069 70.0379 52.441C69.8444 52.275 69.5818 52.1817 69.3079 52.1815C69.0341 52.1814 68.7714 52.2744 68.5776 52.4401L64.4495 55.9749C64.3534 56.057 64.2771 56.1545 64.2251 56.2619C64.1731 56.3692 64.1463 56.4843 64.1463 56.6006C64.1463 56.7168 64.1731 56.8319 64.2251 56.9393C64.2771 57.0466 64.3534 57.1441 64.4495 57.2262L68.5776 60.7611C68.7714 60.9268 69.0341 61.0198 69.3079 61.0196C69.5818 61.0194 69.8444 60.9261 70.0379 60.7602C70.2314 60.5942 70.34 60.3693 70.3398 60.1348C70.3396 59.9003 70.2306 59.6754 70.0368 59.5097L67.6714 57.486H76.196C80.097 57.486 82.5862 53.9212 80.741 50.9767L76.551 44.2958C76.4241 44.0932 76.2099 43.9409 75.9541 43.8713C75.6982 43.8017 75.4207 43.8202 75.1804 43.9229ZM52.1003 55.7169H58.9859C59.2597 55.7169 59.5222 55.81 59.7157 55.9757C59.9092 56.1414 60.018 56.3662 60.018 56.6006C60.018 56.8349 59.9092 57.0597 59.7157 57.2254C59.5222 57.3912 59.2597 57.4843 58.9859 57.4843H52.1003C48.1992 57.4843 45.7079 53.9194 47.5532 50.9749L51.9785 43.9176L47.9598 45.0664C47.8311 45.1031 47.6951 45.1177 47.5598 45.1094C47.4245 45.1011 47.2924 45.07 47.171 45.018C47.0497 44.966 46.9415 44.894 46.8527 44.8062C46.7639 44.7183 46.6961 44.6164 46.6533 44.5061C46.6105 44.3959 46.5934 44.2795 46.6031 44.1636C46.6128 44.0477 46.6491 43.9346 46.7098 43.8307C46.7706 43.7268 46.8547 43.6342 46.9572 43.5581C47.0598 43.4821 47.1788 43.424 47.3076 43.3874L53.4997 41.62C53.7592 41.5461 54.0423 41.5634 54.2869 41.6681C54.5315 41.7728 54.7175 41.9564 54.8042 42.1785L56.8682 47.4807C56.9462 47.7008 56.9208 47.9383 56.7975 48.1427C56.6741 48.347 56.4626 48.5022 56.2079 48.5751C55.9531 48.6481 55.6752 48.6331 55.4331 48.5333C55.191 48.4336 55.0039 48.257 54.9115 48.041L53.6937 44.9162L49.3716 51.8109C49.1181 52.2149 48.9913 52.6682 49.0037 53.1267C49.016 53.5852 49.167 54.0331 49.4419 54.4267C49.7169 54.8203 50.1063 55.146 50.5723 55.3722C51.0382 55.5983 51.5647 55.7171 52.1003 55.7169Z" fill="#054B06"/>
</svg>
